<?xml version="1.0" encoding="UTF-8" standalone="no"?>
<!DOCTYPE svg PUBLIC "-//W3C//DTD SVG 1.1//EN" "http://www.w3.org/Graphics/SVG/1.1/DTD/svg11.dtd">
<svg width="100%" height="100%" viewBox="0 0 186 169" version="1.1" xmlns="http://www.w3.org/2000/svg" xmlns:xlink="http://www.w3.org/1999/xlink" xml:space="preserve" xmlns:serif="http://www.serif.com/" style="fill-rule:evenodd;clip-rule:evenodd;stroke-linejoin:round;stroke-miterlimit:2;">
    <g id="Artboard1" transform="matrix(0.993964,0,0,0.997063,0,0)">
        <rect x="0" y="0" width="186.267" height="169.1" style="fill:none;"/>
        <g transform="matrix(1.00607,0,0,1.00295,0,0)">
            <path d="M15.18,50.15C16.43,59.92 17.26,71.46 17.78,79.26C18.3,71.36 19.24,59.92 20.48,50.15L23.91,22.5L34.41,22.5L24.95,95.27L9.46,95.27L0,22.5L11.75,22.5L15.18,50.15Z" style="fill-rule:nonzero;"/>
        </g>
        <g transform="matrix(1.00607,0,0,1.00295,0,0)">
            <rect x="38.56" y="22.5" width="11.75" height="72.77" style="fill-rule:nonzero;"/>
        </g>
        <g transform="matrix(1.00607,0,0,1.00295,0,0)">
            <path d="M63.52,95.28L63.52,33.42L55.72,33.42L55.72,22.5L83.06,22.5L83.06,33.42L75.26,33.42L75.26,95.28L63.52,95.28Z" style="fill-rule:nonzero;"/>
        </g>
        <g transform="matrix(1.00607,0,0,1.00295,0,0)">
            <path d="M95.46,41.65C94.73,52.88 89.12,95.27 89.12,95.27L78.62,95.27L89.08,22.5L104.19,22.5L113.55,95.27L101.8,95.27C101.81,95.27 96.09,52.88 95.46,41.65Z" style="fill-rule:nonzero;"/>
        </g>
        <g transform="matrix(1.00607,0,0,1.00295,0,0)">
            <path d="M116.4,22.5L128.15,22.5L128.15,84.25L139.59,84.25L139.59,95.27L116.4,95.27L116.4,22.5Z" style="fill-rule:nonzero;"/>
        </g>
        <g transform="matrix(1.00607,0,0,1.00295,0,0)">
            <path d="M27.03,168.05L17.26,168.05L11.85,129.69C11.33,125.74 10.6,119.71 9.98,114.82C10.08,119.5 10.19,125.32 10.19,129.69L10.19,168.05L0,168.05L0,95.27L17.36,95.27L21.52,130C21.94,133.53 22.25,137.59 22.56,141.64C22.77,137.59 22.98,133.53 23.39,130L27.55,95.28L45.53,95.28L45.53,168.05L34.1,168.05L34.1,129.69C34.1,125.32 34.2,119.71 34.31,115.03C33.58,119.92 33.06,125.84 32.54,129.69L27.03,168.05Z" style="fill-rule:nonzero;"/>
        </g>
        <g transform="matrix(1.00607,0,0,1.00295,0,0)">
            <path d="M62.06,124.59L72.77,124.59L72.77,135.61L62.06,135.61L62.06,157.03L75.26,157.03L75.26,168.05L50.31,168.05L50.31,95.27L75.26,95.27L75.26,106.29L62.06,106.29L62.06,124.59Z" style="fill-rule:nonzero;"/>
        </g>
        <g transform="matrix(1.00607,0,0,1.00295,0,0)">
            <path d="M94.81,114.42C94.08,125.65 88.47,168.04 88.47,168.04L77.97,168.04L88.43,95.27L103.54,95.27L112.9,168.04L101.15,168.04C101.15,168.05 95.43,125.65 94.81,114.42Z" style="fill-rule:nonzero;"/>
        </g>
        <g transform="matrix(1.00607,0,0,1.00295,0,0)">
            <path d="M128.46,132.59C127.42,127.7 126.8,123.55 126.07,118.87C126.28,123.55 126.59,127.71 126.59,132.59L126.59,168.04L116.4,168.04L116.4,95.27L131.27,95.27L137.61,127.08C138.55,131.86 139.27,136.44 139.9,141.11C139.8,136.43 139.48,131.86 139.48,126.97L139.48,95.27L149.56,95.27L149.56,168.04L136.15,168.04L128.46,132.59Z" style="fill-rule:nonzero;"/>
        </g>
        <g transform="matrix(1.00607,0,0,1.00295,0,0)">
            <path d="M173.36,148.29C173.36,142.16 171.49,140.08 164.42,134.05C156.52,127.19 153.71,123.55 153.71,113.47L153.71,109.52C153.71,98.08 156.41,94.76 166.91,94.76L171.9,94.76C182.4,94.76 185.1,98.09 185.1,109.52L185.1,119.6L174.08,119.6L174.08,111.08C174.08,107.03 173.66,105.78 170.34,105.78L169.09,105.78C165.66,105.78 165.35,107.03 165.35,110.87L165.35,113.36C165.35,119.49 167.22,121.47 174.29,127.6C182.19,134.57 185.1,138.1 185.1,148.18L185.1,153.8C185.1,165.24 182.29,168.56 171.9,168.56L166.91,168.56C156.41,168.56 153.71,165.23 153.71,153.8L153.71,141.64L164.63,141.64L164.63,152.24C164.63,156.29 164.94,157.54 168.37,157.54L169.72,157.54C173.05,157.54 173.36,156.29 173.36,152.24L173.36,148.29Z" style="fill-rule:nonzero;"/>
        </g>
        <g transform="matrix(1.00607,0,0,1.00295,0,0)">
            <circle cx="96.09" cy="9.3" r="9.3"/>
        </g>
    </g>
</svg>
